<?xml version="1.0" standalone="no"?>
<!DOCTYPE svg PUBLIC "-//W3C//DTD SVG 20010904//EN"
 "http://www.w3.org/TR/2001/REC-SVG-20010904/DTD/svg10.dtd">
<svg version="1.0" xmlns="http://www.w3.org/2000/svg"
 width="730.000000pt" height="730.000000pt" viewBox="0 0 730.000000 730.000000"
 preserveAspectRatio="xMidYMid meet">
<metadata>
Created by potrace 1.14, written by Peter Selinger 2001-2017
</metadata>
<g transform="translate(0.000000,730.000000) scale(0.100000,-0.100000)"
fill="#000000" stroke="none">
<path d="M3448 7295 c-1 -1 -46 -6 -98 -9 -52 -4 -108 -9 -125 -11 -16 -3 -48
-7 -70 -10 -22 -3 -76 -12 -120 -20 -44 -8 -91 -16 -105 -19 -14 -2 -56 -12
-95 -21 -38 -9 -78 -18 -89 -20 -64 -14 -300 -91 -431 -142 -96 -38 -367 -168
-475 -228 -125 -70 -427 -274 -450 -305 -3 -3 -15 -13 -27 -21 -85 -58 -339
-301 -450 -429 -21 -24 -45 -52 -54 -61 -46 -47 -247 -321 -294 -401 -5 -9
-29 -48 -51 -85 -216 -356 -391 -827 -458 -1233 -28 -166 -32 -192 -43 -315
-16 -159 -8 -621 12 -747 2 -13 6 -46 9 -75 3 -28 8 -57 10 -65 3 -7 8 -30 11
-51 27 -188 107 -478 190 -692 15 -38 32 -85 39 -103 6 -17 14 -32 18 -32 5 0
8 -8 8 -17 0 -10 7 -27 15 -37 8 -11 15 -25 15 -31 0 -20 148 -292 226 -416
75 -119 229 -332 280 -386 14 -15 35 -40 47 -56 34 -45 294 -306 366 -367 448
-384 949 -643 1531 -790 63 -16 129 -32 145 -35 57 -11 140 -26 175 -31 19 -2
46 -7 60 -9 99 -20 696 -28 850 -12 41 5 91 10 110 12 63 7 295 53 399 80 757
192 1433 617 1924 1210 32 38 66 79 75 90 31 38 139 191 193 275 108 166 244
428 309 595 17 44 35 89 40 100 19 43 98 294 115 365 2 8 11 47 20 85 34 147
59 298 82 495 15 138 8 635 -11 740 -3 14 -7 49 -10 78 -3 29 -8 63 -11 75 -3
12 -7 33 -9 47 -29 178 -97 448 -127 502 -5 10 -9 24 -9 31 0 36 -111 305
-204 492 -62 126 -86 170 -147 270 -68 112 -198 296 -288 408 -92 115 -278
308 -391 406 -36 31 -72 63 -80 71 -12 12 -51 43 -115 92 -5 4 -23 18 -40 31
-254 196 -651 408 -985 525 -109 38 -302 98 -345 106 -11 2 -50 11 -88 20 -37
9 -82 18 -100 21 -43 7 -98 17 -122 21 -19 4 -123 17 -230 30 -53 6 -521 14
-527 9z m602 -170 c25 -3 56 -8 70 -11 14 -2 45 -7 70 -10 25 -3 88 -14 140
-25 52 -11 106 -23 120 -25 40 -8 298 -84 344 -101 82 -31 222 -86 266 -106
77 -33 284 -138 300 -151 8 -7 23 -16 32 -19 26 -9 204 -122 283 -180 610
-444 1039 -1016 1279 -1707 68 -194 136 -469 152 -610 3 -25 7 -51 10 -58 25
-79 25 -828 0 -949 -2 -11 -8 -43 -12 -70 -3 -26 -8 -57 -10 -68 -7 -35 -17
-89 -19 -105 -18 -99 -121 -444 -162 -540 -8 -19 -19 -44 -23 -55 -64 -153
-170 -368 -229 -463 -105 -170 -267 -400 -315 -448 -12 -12 -34 -39 -51 -60
-52 -68 -349 -360 -426 -419 -213 -164 -353 -260 -491 -339 -139 -80 -360
-185 -473 -226 -27 -9 -77 -27 -110 -39 -160 -58 -466 -133 -640 -156 -27 -4
-61 -8 -75 -10 -197 -26 -792 -27 -872 0 -7 2 -33 6 -57 9 -56 7 -296 52 -296
56 0 1 -11 3 -24 6 -48 9 -269 74 -346 102 -420 153 -763 350 -1094 627 -91
77 -309 293 -382 380 -19 22 -39 45 -45 52 -6 6 -44 56 -85 110 -41 54 -77 99
-81 101 -5 2 -8 8 -8 13 0 6 -18 34 -40 64 -22 30 -40 57 -40 60 0 4 -13 25
-29 48 -69 102 -183 319 -254 487 -108 256 -208 604 -233 811 -3 30 -8 57 -11
62 -4 7 -10 64 -18 187 -13 217 -1 721 20 800 2 8 6 33 9 55 5 35 14 82 30
160 77 371 220 732 431 1090 16 28 33 55 37 60 5 6 33 48 64 95 122 182 252
339 429 515 292 289 560 479 943 669 205 102 534 222 692 252 14 3 33 7 42 10
9 3 25 6 35 8 10 2 54 11 98 21 44 9 103 19 130 22 28 3 52 6 55 8 3 2 44 7
90 10 47 4 87 9 88 10 7 6 647 -3 692 -10z"/>
<path d="M3308 7005 c-2 -1 -37 -5 -78 -8 -83 -6 -103 -9 -110 -19 -3 -3 -5
-105 -5 -226 l0 -220 -65 -17 c-36 -10 -136 -37 -224 -62 -178 -49 -166 -51
-203 30 -9 20 -20 37 -25 37 -4 0 -8 5 -8 11 0 15 -136 233 -155 249 -12 10
-21 10 -47 0 -201 -79 -858 -469 -858 -509 0 -4 49 -93 109 -197 l109 -189
-170 -167 c-93 -93 -172 -168 -175 -168 -3 0 -17 8 -31 19 -39 27 -342 201
-350 201 -7 0 -175 -249 -239 -355 -53 -87 -179 -317 -221 -405 -50 -104 -58
-135 -41 -153 21 -19 97 -70 154 -102 43 -23 97 -55 192 -112 18 -11 21 -18
14 -36 -21 -50 -86 -291 -94 -346 -2 -11 -6 -24 -10 -27 -4 -4 -7 -18 -7 -30
l0 -24 -157 1 c-87 0 -190 0 -229 0 l-70 -1 -11 -52 c-15 -75 -15 -863 0 -948
l12 -65 205 -1 c113 -1 215 -2 227 -3 16 -1 23 -9 28 -33 4 -18 27 -105 51
-193 25 -88 47 -167 49 -175 2 -8 6 -22 9 -31 5 -11 -13 -26 -71 -59 -116 -66
-234 -139 -271 -167 -30 -22 -33 -30 -28 -57 7 -32 128 -278 171 -347 14 -21
25 -41 25 -44 0 -12 268 -437 305 -483 3 -3 70 34 193 107 29 17 54 31 56 31
2 0 34 18 70 40 36 22 69 40 73 40 4 0 83 -75 174 -166 l166 -166 -108 -188
c-60 -104 -109 -191 -109 -194 0 -18 178 -142 332 -231 257 -150 401 -227 495
-268 57 -24 64 -25 78 -11 21 22 84 115 126 189 19 33 39 67 44 77 6 9 21 37
34 61 13 25 29 44 35 42 23 -8 222 -67 236 -70 45 -10 196 -50 200 -53 3 -2 5
-103 5 -225 l0 -221 35 -8 c83 -17 160 -22 395 -21 255 0 551 9 594 18 43 8
43 5 43 307 1 90 5 141 12 146 9 8 39 18 81 27 6 2 88 24 184 51 146 40 176
45 183 33 5 -8 48 -79 95 -159 47 -80 95 -157 107 -172 22 -28 53 -35 84 -19
9 5 67 34 127 64 100 50 196 102 235 127 8 6 22 13 30 17 27 12 233 138 320
196 101 66 133 95 126 110 -3 7 -9 20 -12 30 -4 9 -10 17 -15 17 -5 0 -9 4 -9
9 0 5 -22 48 -50 96 -27 48 -50 91 -50 96 0 5 -4 9 -9 9 -5 0 -11 8 -14 18 -3
9 -17 35 -31 58 l-25 41 165 164 c90 90 168 165 173 167 4 1 93 -47 197 -107
104 -60 192 -107 196 -105 8 5 179 263 241 364 96 157 267 491 267 522 0 22
-65 68 -237 168 l-141 82 19 66 c11 37 38 138 61 225 l41 157 31 1 c17 0 118
1 223 1 l193 1 11 36 c8 24 13 172 15 456 2 391 -5 547 -26 568 -4 5 -105 9
-224 8 -118 0 -217 3 -220 8 -5 7 -114 408 -119 435 -1 5 57 43 128 85 72 42
156 94 188 116 68 47 69 49 8 176 -46 94 -136 265 -149 283 -5 6 -21 31 -34
56 -55 99 -71 126 -81 139 -6 7 -16 22 -22 32 -5 10 -46 72 -90 138 -91 136
-80 132 -182 70 -35 -22 -65 -39 -68 -39 -3 0 -35 -19 -72 -42 -38 -22 -87
-52 -110 -65 l-43 -23 -169 167 -170 168 109 190 c61 104 110 193 110 197 0 4
-19 22 -42 38 -24 17 -50 36 -59 43 -23 17 -35 25 -239 147 -102 61 -192 115
-200 120 -55 33 -291 150 -304 150 -9 0 -16 5 -16 10 0 6 -9 10 -19 10 -30 0
-92 -89 -212 -303 -29 -51 -48 -76 -57 -72 -11 4 -140 38 -192 50 -82 20 -236
69 -241 76 -3 6 -5 101 -5 212 1 111 -2 209 -6 218 -5 11 -27 19 -65 24 -50 7
-798 16 -805 10z m487 -320 c11 -2 28 -4 37 -4 16 -1 18 -20 20 -217 l3 -217
30 -3 c17 -1 50 -6 75 -10 25 -4 52 -8 60 -9 15 -2 190 -43 220 -51 8 -2 40
-10 70 -18 114 -30 207 -58 260 -78 138 -52 184 -68 195 -68 7 0 62 83 122
185 59 101 111 185 115 185 4 0 58 -30 121 -67 62 -38 124 -74 137 -81 14 -7
36 -21 49 -31 l24 -18 -26 -56 c-14 -31 -42 -84 -62 -119 -59 -99 -117 -209
-114 -212 2 -1 58 -45 124 -98 153 -122 281 -248 410 -403 28 -33 55 -65 60
-71 6 -6 23 -28 39 -48 15 -20 32 -36 37 -36 15 0 115 49 220 108 143 79 156
85 168 78 13 -8 141 -220 141 -234 0 -6 3 -12 8 -14 4 -1 17 -21 29 -44 l23
-41 -23 -12 c-12 -6 -31 -17 -42 -24 -12 -7 -87 -50 -168 -97 -81 -46 -147
-90 -147 -97 0 -7 15 -50 34 -95 38 -93 97 -273 112 -343 1 -5 7 -30 14 -55 7
-25 14 -52 16 -60 2 -8 12 -49 22 -91 10 -42 20 -104 21 -138 2 -66 13 -105
30 -116 21 -12 59 -15 239 -15 100 -1 182 -4 183 -8 0 -4 3 -16 5 -27 9 -39
10 -271 2 -320 l-9 -50 -187 1 c-103 0 -199 -4 -213 -8 -34 -12 -45 -39 -48
-118 -2 -35 -4 -67 -6 -71 -2 -3 -7 -21 -10 -40 -21 -126 -130 -493 -179 -603
-14 -32 -26 -65 -26 -72 0 -7 66 -52 148 -99 81 -48 158 -93 172 -101 14 -8
33 -18 42 -21 16 -5 15 -10 -8 -55 -29 -58 -146 -254 -168 -282 -14 -17 -20
-15 -118 39 -57 32 -119 66 -138 77 -38 20 -60 33 -103 62 -33 22 -24 29 -117
-89 -139 -175 -342 -376 -511 -507 -47 -37 -78 -67 -75 -75 3 -7 30 -56 61
-109 30 -52 55 -98 55 -100 0 -2 12 -23 26 -45 32 -51 54 -113 46 -126 -4 -6
-25 -20 -47 -32 -22 -12 -92 -53 -155 -91 -63 -37 -119 -65 -123 -61 -13 13
-207 343 -207 352 0 5 -8 9 -18 9 -18 0 -45 -8 -202 -64 -92 -33 -339 -102
-430 -121 -148 -31 -239 -46 -277 -48 -10 0 -13 -51 -13 -219 l0 -218 -37 -1
c-21 0 -47 -3 -58 -5 -25 -6 -201 -6 -235 0 -14 2 -35 5 -47 5 l-23 1 0 214
c0 118 -4 217 -8 220 -5 3 -30 7 -58 10 -27 4 -62 9 -79 12 -16 4 -41 8 -55
10 -47 6 -180 38 -335 79 -68 18 -260 81 -290 95 -24 11 -96 40 -100 40 -3 0
-16 -22 -154 -258 l-72 -123 -37 22 c-20 12 -46 27 -57 33 -11 6 -68 40 -127
75 -98 58 -106 65 -102 89 3 15 38 85 79 157 104 184 115 205 115 209 0 2 -46
38 -102 82 -140 107 -415 382 -487 486 -8 13 -21 29 -27 35 -7 7 -21 24 -32
38 l-20 26 -59 -27 c-32 -15 -87 -43 -123 -64 -143 -83 -203 -112 -209 -103
-3 5 -20 29 -37 53 -17 25 -61 98 -97 162 l-65 117 31 20 c18 10 48 28 67 39
19 11 75 43 123 71 49 28 91 51 93 51 3 0 10 5 17 10 7 6 21 17 31 24 19 13
18 17 -26 127 -44 110 -74 195 -83 235 -2 10 -15 63 -29 116 -24 94 -57 255
-71 348 -4 25 -9 52 -10 60 -2 8 -4 22 -4 31 -1 13 -28 15 -212 14 -201 0
-211 1 -222 20 -11 21 -15 300 -5 345 4 14 7 28 7 32 1 4 74 7 164 7 89 0 185
0 213 1 l52 0 11 78 c6 42 14 93 17 112 3 19 21 98 40 175 19 77 37 147 38
155 13 54 63 203 96 286 22 55 40 104 40 109 0 6 -85 60 -190 120 l-189 109
31 55 c72 129 137 238 156 261 l20 24 68 -34 c38 -19 71 -38 74 -41 8 -11 222
-119 235 -119 6 0 36 30 66 66 30 37 59 72 64 78 6 6 32 38 60 71 91 108 201
212 376 357 54 45 99 85 99 89 0 12 -112 224 -127 242 -9 9 -12 17 -8 17 4 0
1 8 -7 18 -8 9 -23 37 -32 61 -16 42 -16 44 3 62 11 11 23 19 26 19 3 0 66 36
140 81 74 44 139 78 144 74 9 -5 93 -142 131 -214 8 -15 33 -57 54 -94 34 -57
42 -64 58 -56 36 19 184 70 333 113 248 73 330 92 490 111 91 11 83 -10 85
227 0 117 2 213 4 215 1 2 29 6 62 9 32 4 60 7 62 9 4 3 194 -5 217 -10z"/>
<path d="M3704 6026 c-17 -44 22 -70 60 -41 19 14 19 15 1 35 -21 23 -53 26
-61 6z"/>
<path d="M3209 6013 c-27 -11 -30 -15 -18 -29 16 -20 106 -14 120 7 19 32 -46
46 -102 22z"/>
<path d="M3474 5890 c-17 -5 -38 -18 -47 -28 -16 -18 -16 -20 3 -45 33 -42 27
-57 -27 -57 -41 0 -50 5 -83 39 -66 69 -103 77 -179 36 -56 -31 -93 -81 -94
-130 -1 -40 16 -63 53 -68 31 -5 34 -35 5 -51 -11 -6 -22 -13 -25 -16 -15 -16
-85 -30 -122 -26 -53 7 -68 26 -69 90 -1 64 -5 86 -18 99 -16 16 -33 -40 -34
-118 -2 -87 22 -140 77 -171 41 -23 60 -23 126 0 132 48 220 162 181 235 -6
10 -28 26 -50 36 -23 10 -41 21 -41 25 0 16 27 30 56 30 27 0 40 -9 79 -54 53
-63 73 -70 140 -52 49 12 177 14 259 2 23 -3 64 -8 91 -12 28 -3 86 -14 130
-24 185 -42 264 -46 309 -15 63 43 76 123 27 177 -28 31 -33 33 -98 33 -62 0
-76 -4 -132 -38 -34 -20 -67 -37 -71 -37 -5 0 -24 9 -42 19 -29 19 -33 19 -59
4 -24 -14 -33 -15 -76 -2 -26 7 -51 12 -56 11 -23 -7 -89 -4 -97 4 -6 6 -5 21
2 42 10 27 10 34 -3 47 -20 20 -75 27 -115 15z m678 -166 c4 -3 8 -12 8 -20 0
-18 -59 -19 -120 0 l-45 14 40 7 c22 4 45 8 50 9 12 4 55 -3 67 -10z"/>
<path d="M4697 5743 c-54 -75 -125 -203 -147 -266 -18 -51 -19 -61 -6 -91 16
-39 57 -71 106 -81 47 -10 87 -31 134 -71 22 -19 45 -34 53 -34 20 0 148 -126
207 -204 29 -39 62 -78 72 -87 26 -22 68 -31 97 -20 56 22 130 122 120 162
-12 45 -75 50 -89 6 -11 -30 -11 -33 -13 -62 -2 -44 -19 -32 -91 63 -25 32
-48 52 -60 52 -13 0 -20 7 -20 20 0 11 -12 28 -28 38 -15 9 -49 35 -75 57 -27
22 -51 40 -55 40 -4 1 -17 6 -28 12 -30 17 -44 59 -57 178 -2 11 -6 25 -10 32
-14 22 26 30 139 28 77 -2 120 1 144 11 42 18 30 33 -31 39 -24 3 -58 7 -76
10 -34 6 -172 17 -213 17 -85 0 -88 -7 -44 -157 16 -55 16 -65 2 -65 -42 0
-102 83 -93 128 4 23 37 88 99 196 25 44 43 83 40 88 -13 21 -45 5 -77 -39z"/>
<path d="M2417 5706 c-18 -18 -14 -126 5 -137 18 -11 48 9 48 31 0 20 8 24 47
20 16 -1 21 4 18 17 -2 10 -4 24 -4 30 -1 11 -74 53 -92 53 -4 0 -14 -7 -22
-14z"/>
<path d="M4389 5670 c-26 -15 -90 -114 -95 -148 -8 -51 39 -102 85 -93 27 5
79 52 95 86 25 51 21 111 -9 140 -25 26 -49 31 -76 15z m28 -136 c-10 -10 -37
16 -37 34 0 13 4 12 22 -5 12 -13 19 -25 15 -29z"/>
<path d="M2685 5610 c-4 -16 -2 -38 4 -49 17 -30 14 -33 -28 -28 -47 5 -55 1
-68 -38 -8 -24 -16 -30 -40 -31 -49 -2 -62 -11 -79 -54 -9 -22 -17 -40 -18
-40 0 0 -26 -3 -56 -6 -84 -8 -97 -12 -103 -33 -5 -21 17 -61 35 -61 6 0 26
-11 45 -26 48 -36 44 -65 -22 -165 -30 -46 -55 -90 -55 -96 0 -19 51 -16 80 4
68 46 88 90 84 183 -1 36 0 75 3 88 7 30 153 148 220 178 66 29 93 59 93 100
0 36 -38 88 -69 97 -16 4 -21 -2 -26 -23z"/>
<path d="M4890 5630 c0 -6 6 -10 13 -11 6 0 19 -2 27 -3 84 -17 134 -12 99 10
-18 11 -139 14 -139 4z"/>
<path d="M3564 5459 c-123 -64 -131 -94 -46 -166 76 -65 117 -93 136 -93 18 0
55 19 71 36 5 6 38 32 72 58 34 26 64 55 68 63 3 11 -10 30 -38 57 -87 84
-164 97 -263 45z"/>
<path d="M5140 5360 c-8 -5 -27 -10 -41 -10 -35 0 -56 -24 -39 -45 7 -8 24
-15 37 -15 19 0 24 -4 19 -16 -8 -20 10 -54 28 -54 35 0 63 131 30 144 -19 7
-16 8 -34 -4z"/>
<path d="M3268 5332 c-46 -10 -10 -74 110 -192 69 -69 162 -193 184 -245 9
-22 28 -71 43 -110 36 -95 48 -119 60 -118 5 1 23 43 40 95 59 180 114 266
262 413 136 136 141 159 31 158 -85 0 -123 -21 -235 -132 -51 -50 -97 -91
-102 -91 -10 0 -97 68 -151 118 -92 85 -172 120 -242 104z"/>
<path d="M2083 5293 c-34 -13 2 -65 60 -86 23 -9 21 -31 -5 -61 -34 -38 -71
-43 -94 -13 -77 97 -150 12 -94 -110 10 -24 17 -52 15 -63 -5 -27 -88 -154
-143 -218 -67 -79 -118 -107 -204 -112 -13 0 6 -35 34 -62 57 -53 121 -44 193
29 46 46 46 47 158 213 82 123 97 143 165 218 69 76 87 142 57 206 -24 51 -92
80 -142 59z m-53 -238 c0 -8 -6 -15 -14 -15 -17 0 -28 14 -19 24 12 12 33 6
33 -9z"/>
<path d="M3014 5256 c-5 -13 50 -131 119 -253 118 -211 191 -462 223 -767 16
-153 18 -300 17 -982 l-2 -781 42 -19 c51 -23 122 -23 145 0 10 10 19 41 23
84 8 93 3 1968 -6 2017 -18 99 -118 326 -186 425 -53 77 -113 138 -189 194
-102 75 -176 108 -186 82z"/>
<path d="M4201 5230 c-93 -51 -229 -177 -295 -273 -78 -115 -140 -300 -151
-456 -16 -214 -27 -1966 -13 -2018 7 -26 16 -34 47 -43 63 -17 136 -2 146 30
15 47 16 99 29 1525 3 276 6 341 20 395 10 36 19 72 21 80 37 182 92 330 218
591 37 75 69 150 72 168 5 27 3 31 -17 31 -13 0 -47 -14 -77 -30z"/>
<path d="M5379 5208 c-9 -27 -3 -51 15 -58 27 -10 46 -2 46 19 0 22 -19 41
-42 41 -10 0 -18 -1 -19 -2z"/>
<path d="M1732 5028 c-25 -25 -8 -78 25 -78 20 0 35 47 23 71 -12 22 -30 25
-48 7z"/>
<path d="M5379 4921 c-102 -104 -138 -156 -121 -173 15 -15 42 -2 87 40 69 64
185 204 185 224 0 5 -12 8 -27 8 -21 0 -49 -22 -124 -99z"/>
<path d="M2134 4838 c-9 -18 -23 -37 -30 -41 -19 -11 -18 -43 2 -51 21 -8 29
-2 44 34 7 16 16 30 20 30 12 0 20 28 14 45 -10 25 -32 17 -50 -17z"/>
<path d="M5500 4810 c-10 -6 -14 -24 -12 -62 5 -88 5 -92 3 -111 -1 -15 -4
-16 -23 -6 -12 6 -40 29 -62 51 -48 46 -85 49 -100 7 -18 -52 48 -134 118
-146 51 -8 83 3 120 42 37 38 45 65 42 142 -4 75 -41 111 -86 83z"/>
<path d="M4647 4784 c-1 -1 -24 -5 -52 -8 -62 -6 -108 -22 -160 -54 -168 -105
-286 -254 -315 -397 -5 -27 -13 -63 -17 -80 -9 -42 -12 -1221 -2 -1236 10 -17
76 50 154 155 l59 78 2 92 c9 388 15 589 20 635 9 70 44 107 80 83 33 -22 40
-70 49 -372 6 -220 17 -273 53 -267 9 1 53 23 97 48 44 24 101 54 126 66 25
12 50 28 57 36 17 20 25 177 37 707 7 324 10 347 56 412 24 33 20 73 -9 82
-42 13 -226 29 -235 20z"/>
<path d="M2475 4767 c-16 -5 -33 -14 -36 -20 -9 -12 3 -51 29 -103 36 -71 41
-136 42 -619 0 -258 4 -472 8 -476 4 -3 57 -32 117 -64 61 -32 115 -60 120
-64 24 -14 74 -28 84 -22 16 10 27 108 25 216 -9 343 -6 391 25 419 27 25 60
27 80 7 16 -16 19 -37 21 -142 1 -68 3 -232 5 -364 4 -301 9 -327 82 -396 21
-20 55 -62 76 -93 22 -32 44 -55 50 -53 6 2 15 17 20 33 18 57 12 1073 -7
1199 -3 17 -7 48 -10 70 -8 59 -21 98 -56 163 -77 146 -215 254 -378 298 -68
18 -255 25 -297 11z"/>
<path d="M5087 4399 c-45 -12 -96 -73 -112 -134 -18 -70 -28 -555 -12 -618 11
-41 31 -55 89 -58 57 -4 94 10 108 39 15 34 22 173 24 511 l1 263 -35 2 c-19
2 -48 -1 -63 -5z"/>
<path d="M2149 4368 c-10 -20 -13 -682 -4 -730 9 -45 49 -68 120 -68 61 0 81
12 89 52 25 141 27 483 3 571 -29 110 -94 177 -169 177 -21 0 -39 -1 -39 -2z"/>
<path d="M5058 3465 c-1 -1 -30 -6 -62 -10 -175 -20 -422 -145 -551 -279 -178
-184 -359 -498 -372 -646 -7 -69 3 -78 83 -86 51 -5 64 -3 93 18 40 27 35 20
104 168 30 63 80 153 111 200 60 88 255 290 281 290 8 0 15 4 15 8 0 10 94 58
133 67 20 5 33 2 47 -10 17 -16 18 -20 5 -44 -7 -15 -72 -88 -143 -162 -161
-168 -208 -220 -264 -300 -59 -83 -88 -145 -88 -186 0 -40 26 -54 105 -55 93
-2 139 35 239 192 112 175 335 343 555 419 95 33 154 42 268 42 91 -1 104 1
113 18 16 31 -4 65 -67 113 -188 144 -354 220 -506 233 -40 4 -77 8 -84 10 -6
2 -13 2 -15 0z"/>
<path d="M2235 3452 c-247 -21 -544 -177 -645 -338 -22 -36 -12 -40 134 -49
50 -3 102 -8 116 -10 14 -2 41 -7 60 -10 115 -21 269 -93 387 -182 78 -59 263
-248 263 -269 0 -7 3 -14 8 -16 4 -1 24 -29 45 -61 47 -73 75 -85 180 -83 65
2 82 6 93 21 27 37 -9 125 -116 286 -75 112 -160 197 -255 259 -139 88 -174
155 -93 175 78 20 228 -86 389 -275 93 -108 142 -189 223 -362 20 -43 46 -83
58 -89 33 -18 129 -22 158 -7 49 26 32 115 -55 289 -106 215 -251 392 -429
525 -163 123 -389 208 -521 196z"/>
<path d="M5605 2979 c-145 -30 -290 -83 -381 -140 -71 -45 -156 -118 -263
-228 -105 -108 -148 -166 -157 -211 -6 -28 -1 -36 51 -84 84 -79 99 -85 131
-55 15 13 54 60 87 104 137 179 315 313 467 351 8 2 33 8 55 13 47 12 120 19
269 26 61 3 112 7 114 10 17 17 -71 163 -121 199 -23 17 -44 21 -120 22 -51 1
-110 -2 -132 -7z"/>
<path d="M1530 2949 c-36 -7 -54 -18 -92 -58 -25 -28 -54 -71 -64 -97 -25 -66
-14 -72 129 -70 93 1 182 -6 232 -18 6 -2 24 -6 40 -10 34 -9 44 -13 137 -54
58 -26 123 -65 177 -107 59 -45 175 -173 210 -232 23 -39 50 -78 60 -87 18
-16 22 -14 80 40 92 85 105 117 74 182 -20 42 -232 257 -321 325 -142 109
-305 171 -482 183 -47 3 -96 6 -110 8 -14 1 -45 -1 -70 -5z"/>
<path d="M3620 2332 c-33 -5 -97 -57 -117 -96 -11 -20 -16 -55 -16 -98 0 -80
24 -125 90 -163 124 -74 272 16 273 166 0 127 -101 212 -230 191z"/>
<path d="M3007 2304 c-1 -1 -27 -4 -57 -7 -371 -34 -586 -234 -654 -607 -22
-120 -13 -151 49 -166 43 -11 974 -14 1020 -4 20 5 43 14 49 20 7 7 11 67 11
175 0 133 -3 167 -15 179 -21 21 -92 26 -413 29 -229 3 -280 6 -292 18 -13 13
-13 17 1 37 20 28 80 59 141 72 26 6 152 12 278 14 132 2 241 8 257 14 36 15
48 41 48 107 0 110 -17 118 -248 120 -95 1 -174 0 -175 -1z"/>
<path d="M3922 2298 c0 -7 -4 -47 -8 -88 -6 -71 -5 -78 18 -104 l25 -29 169
-3 c93 -2 207 -4 253 -5 46 -1 100 -7 120 -13 84 -26 168 -94 139 -112 -6 -4
-162 -8 -345 -8 l-333 -1 -27 -28 -28 -27 1 -161 c1 -126 4 -163 15 -175 25
-24 179 -32 649 -33 328 -1 412 6 445 39 17 18 20 33 20 113 0 160 -68 316
-195 446 -135 138 -190 167 -365 187 -16 2 -147 6 -291 9 -209 5 -261 3 -262
-7z"/>
<path d="M3596 1668 c-31 -40 -60 -77 -64 -83 -33 -42 -122 -194 -122 -208 0
-10 14 -23 33 -31 17 -8 49 -22 69 -30 20 -9 60 -41 89 -71 29 -30 57 -55 64
-55 6 0 36 24 67 54 61 59 94 80 148 91 19 4 45 13 57 21 25 15 23 22 -30 99
-53 78 -62 91 -118 160 -71 88 -108 125 -125 125 -7 0 -38 -33 -68 -72z"/>
</g>
</svg>
